<svg width="145" height="71" viewBox="0 0 145 71" fill="none" xmlns="http://www.w3.org/2000/svg">
<g clip-path="url(#clip0)">
<path d="M32.3696 30.7178C31.7369 31.3314 31.2061 31.8494 30.6626 32.4142C30.1276 32.9853 29.5671 33.5926 28.8855 34.3972C28.1424 35.2656 25.9513 37.9026 24.0256 40.3909C22.0936 42.8729 20.4099 45.1829 20.4099 45.1829C20.4099 45.1829 19.9895 45.7604 19.3398 46.6563C18.6944 47.5565 17.8196 48.7774 16.9258 50.0682C15.1275 52.6479 13.24 55.5099 12.6179 56.4653C12.0425 57.3485 11.6137 58.0534 11.2166 58.7286C10.826 59.408 10.4735 60.0577 10.0574 60.8348C10.5861 60.1277 11.0234 59.5311 11.4735 58.8921C11.9279 58.2551 12.3886 57.5715 12.9661 56.6904C13.5903 55.7371 15.4757 52.8793 17.2697 50.3039C18.1615 49.013 19.0341 47.7943 19.6774 46.8962C20.3271 46.0024 20.7454 45.4249 20.7454 45.4249C20.7454 45.4249 22.429 43.1213 24.3568 40.6457C26.2783 38.1637 28.4651 35.531 29.204 34.6647C29.8813 33.8601 30.4121 33.2295 30.894 32.6138C31.3824 32.0044 31.8367 31.4206 32.3696 30.7178Z" fill="white"/>
<path d="M97.6312 59.8284C97.319 57.3507 97.0091 55.2742 96.629 53.0874C96.2469 50.9005 95.7946 48.599 95.111 45.686C94.7458 44.1085 93.973 40.9557 92.8604 37.1595C91.7479 33.3633 90.2787 28.9322 88.6226 24.7836C88.2065 23.7475 87.7776 22.7305 87.3381 21.7454C86.8944 20.7623 86.44 19.8154 85.9814 18.9131C85.0536 17.1169 84.1067 15.5139 83.2001 14.2188C82.302 12.9194 81.4591 11.9215 80.8455 11.2527C80.5334 10.9215 80.2913 10.6625 80.1151 10.499C79.941 10.3313 79.8497 10.2421 79.8497 10.2421C79.8497 10.2421 79.8264 10.2209 79.7818 10.1763C79.7372 10.1338 79.6714 10.068 79.5801 9.98944C79.3954 9.83445 79.1406 9.58604 78.7818 9.30367C78.0811 8.72829 77.0153 7.94485 75.561 7.28455C74.1215 6.60938 72.2467 6.1338 70.2085 6.13804C68.1681 6.10619 65.9728 6.46076 63.8263 7.10832C62.7477 7.42467 61.6819 7.81533 60.6394 8.2527C59.5948 8.68583 58.5715 9.16566 57.5821 9.67309C56.5906 10.1784 55.6288 10.7028 54.7137 11.2464C54.2551 11.516 53.7986 11.7771 53.3655 12.0574C52.9303 12.3334 52.495 12.5924 52.0852 12.8706C50.4228 13.9491 48.9663 15.0128 47.7689 15.9322C47.1659 16.3865 46.6351 16.8133 46.1723 17.1869C45.7052 17.5542 45.3209 17.8855 45.0088 18.1445C42.7136 20.0681 41.0087 21.6859 39.4397 23.257C37.8728 24.8324 36.4461 26.3717 34.7943 28.2443C36.5416 26.4609 38.0406 24.9959 39.652 23.4736C41.2656 21.9555 42.9875 20.3738 45.2742 18.4608C45.5841 18.2039 45.9684 17.8748 46.4334 17.5097C46.8941 17.1381 47.4228 16.7135 48.0236 16.2612C49.2147 15.3462 50.6627 14.2888 52.3145 13.2188C52.7222 12.9428 53.1532 12.6859 53.5863 12.412C54.0173 12.136 54.4695 11.8769 54.926 11.6073C55.8369 11.068 56.7923 10.5457 57.7753 10.0446C58.7562 9.53934 59.7689 9.06587 60.8029 8.63699C61.8348 8.20599 62.8879 7.81746 63.9494 7.50748C66.0662 6.86841 68.2191 6.52233 70.2085 6.55206C72.2021 6.54993 73.9962 7.00641 75.3954 7.66034C76.8051 8.29941 77.8433 9.06163 78.527 9.62426C78.8752 9.89815 79.1257 10.1423 79.3062 10.2931C79.3954 10.3695 79.4591 10.4353 79.5037 10.4756C79.5482 10.5181 79.5695 10.5393 79.5695 10.5393C79.5695 10.5393 79.6586 10.6264 79.8285 10.792C80.0026 10.9512 80.2404 11.206 80.5461 11.5309C81.1491 12.1869 81.9771 13.1678 82.8646 14.4502C83.7585 15.7283 84.699 17.3143 85.6183 19.0978C86.0727 19.9916 86.5249 20.9343 86.9644 21.911C87.4018 22.8897 87.8285 23.9025 88.2426 24.9343C89.0706 26.998 89.8413 29.1403 90.5589 31.2337C91.2702 33.3293 91.9114 35.3803 92.4676 37.272C93.5781 41.0576 94.3488 44.202 94.7161 45.7752C95.4018 48.6797 95.888 50.9685 96.3403 53.1383C96.7798 55.3146 97.1895 57.3698 97.6312 59.8284Z" fill="white"/>
<g opacity="0.8">
<g opacity="0.8">
<g opacity="0.8">
<g opacity="0.8">
<path opacity="0.8" d="M0.0280304 0.0452843C4.4081 3.07503 7.40175 5.10264 12.8073 8.46571C18.663 12.109 48.0134 30.3193 48.0134 30.3193C48.0134 30.3193 77.3554 48.5402 83.2175 52.1708C88.6315 55.5233 91.7759 57.3068 96.4341 59.8885C92.054 56.8588 89.0604 54.8312 83.6548 51.4681C77.7992 47.8247 48.4508 29.6144 48.4508 29.6144C48.4508 29.6144 19.1088 11.3935 13.2447 7.76295C7.83275 4.41049 4.68835 2.62704 0.0280304 0.0452843Z" fill="#DADADA"/>
</g>
</g>
</g>
</g>
<path d="M97.0154 59.9303C93.7755 58.1532 91.5674 56.9621 87.6226 54.9727C83.3487 52.8177 61.9282 42.0448 61.9282 42.0448C61.9282 42.0448 40.5119 31.2656 36.2338 29.1169C32.2826 27.1339 30.0108 26.0702 26.6541 24.5288C29.894 26.3059 32.1 27.497 36.049 29.4864C40.323 31.6414 61.7435 42.4143 61.7435 42.4143C61.7435 42.4143 83.1597 53.1935 87.4379 55.3422C91.3848 57.3252 93.6566 58.3889 97.0154 59.9303Z" fill="#00A9D5"/>
<path d="M92.3063 31.4482C89.2765 26.1615 83.5483 22.911 76.9389 22.911C66.9707 22.911 59.0938 30.1255 59.0938 40.9217C59.0938 51.5523 66.9707 58.8772 76.9389 58.8772C83.9347 58.8772 89.9368 55.132 92.9114 49.2381L95.0048 49.8432C91.7543 56.6734 84.9814 60.9685 76.9389 60.9685C65.8688 60.9685 56.9451 52.5417 56.9451 40.9196C56.9451 29.2974 65.8666 20.8706 76.9389 20.8706C84.4846 20.8706 90.9836 24.7815 94.4528 30.894L92.3063 31.4482Z" fill="white"/>
<path d="M98.6375 60.1999V21.6456H100.731V60.1999H98.6375Z" fill="white"/>
<path d="M141.818 53.1489C140.222 55.3528 135.154 60.9706 125.846 60.9706C114.776 60.9706 105.852 52.5438 105.852 40.9217C105.852 29.2995 114.773 20.8727 125.846 20.8727C134.052 21.1487 140.056 25.0596 143.36 30.8961L141.211 31.446C138.181 26.1594 132.453 22.9088 125.844 22.9088C115.875 22.9088 107.999 30.1233 107.999 40.9196C107.999 51.5502 115.875 58.9303 125.844 58.9303C134.05 58.9303 140.164 53.8092 141.816 50.2827V43.0682H129.258V41.1956H143.799V60.3082H141.816C141.816 54.8007 141.871 53.2041 141.871 53.1489H141.818Z" fill="white"/>
<path d="M100.644 64.994C101.901 64.994 102.657 65.6394 102.657 66.7053C102.657 67.7711 101.901 68.4165 100.644 68.4165H99.4507V70.5652H99.1492V64.994H100.644ZM100.644 68.1299C101.75 68.1299 102.347 67.58 102.347 66.7053C102.347 65.7817 101.686 65.2891 100.644 65.2891H99.4507V68.1299H100.644Z" fill="white"/>
<path fill-rule="evenodd" clip-rule="evenodd" d="M98.9369 64.7817H100.644C101.307 64.7817 101.864 64.9518 102.259 65.2883C102.659 65.6284 102.869 66.1186 102.869 66.7053C102.869 67.2919 102.659 67.7821 102.259 68.1223C101.864 68.4587 101.307 68.6288 100.644 68.6288H99.663V70.7775H98.9369V64.7817ZM99.663 65.5014V67.9176H100.644C101.164 67.9176 101.535 67.7882 101.772 67.5845C102.005 67.3846 102.134 67.0915 102.134 66.7053C102.134 66.2987 101.992 66.009 101.753 65.816C101.507 65.6178 101.135 65.5014 100.644 65.5014H99.663Z" fill="white"/>
<path d="M107.049 70.5673L105.672 68.3231C105.529 68.3465 105.376 68.355 105.217 68.355H104.024V70.5673H103.722V64.9961H105.219C106.476 64.9961 107.232 65.6331 107.232 66.684C107.232 67.5036 106.771 68.062 105.975 68.2679L107.408 70.5673H107.049ZM105.219 68.0832C106.325 68.0832 106.922 67.5269 106.922 66.6819C106.922 65.7668 106.262 65.2891 105.219 65.2891H104.026V68.0832H105.219Z" fill="white"/>
<path fill-rule="evenodd" clip-rule="evenodd" d="M103.51 64.7838H105.219C105.881 64.7838 106.438 64.9515 106.834 65.2834C107.233 65.6192 107.444 66.1038 107.444 66.684C107.444 67.135 107.317 67.5282 107.068 67.8389C106.873 68.0817 106.612 68.2646 106.299 68.3864L107.791 70.7796H107.049V70.5673L106.869 70.6784L105.563 68.5515C105.45 68.563 105.334 68.5673 105.217 68.5673H104.236V70.7796H103.51V64.7838ZM104.238 65.5014V67.8709H105.219C105.739 67.8709 106.11 67.7402 106.348 67.5378C106.581 67.3389 106.71 67.0513 106.71 66.6819C106.71 66.2805 106.568 65.9972 106.33 65.8088C106.085 65.6147 105.712 65.5014 105.219 65.5014H104.238Z" fill="white"/>
<path d="M110.926 64.8836C112.527 64.8836 113.824 66.1023 113.824 67.7817C113.824 69.4611 112.527 70.6798 110.926 70.6798C109.325 70.6798 108.037 69.4611 108.037 67.7817C108.037 66.1002 109.325 64.8836 110.926 64.8836ZM110.926 70.3826C112.359 70.3826 113.512 69.3168 113.512 67.7796C113.512 66.2191 112.357 65.1766 110.926 65.1766C109.485 65.1766 108.347 66.2191 108.347 67.7796C108.347 69.3168 109.485 70.3826 110.926 70.3826Z" fill="white"/>
<path fill-rule="evenodd" clip-rule="evenodd" d="M107.824 67.7817C107.824 65.9798 109.211 64.6713 110.926 64.6713C112.641 64.6713 114.037 65.9813 114.037 67.7817C114.037 69.5822 112.641 70.8921 110.926 70.8921C109.211 70.8921 107.824 69.5813 107.824 67.7817ZM110.926 65.3889C109.598 65.3889 108.559 66.3402 108.559 67.7796C108.559 69.1969 109.599 70.1703 110.926 70.1703C112.246 70.1703 113.3 69.1957 113.3 67.7796C113.3 66.3415 112.245 65.3889 110.926 65.3889Z" fill="white"/>
<path d="M118.519 64.994L116.347 67.6925V70.5652H116.045V67.6925L113.873 64.994H114.238L115.831 66.9749C115.967 67.1342 116.19 67.4356 116.196 67.4356H116.205C116.213 67.4356 116.442 67.1342 116.57 66.9749L118.154 64.994H118.519Z" fill="white"/>
<path fill-rule="evenodd" clip-rule="evenodd" d="M113.43 64.7817H114.34L115.994 66.8395C116.057 66.9132 116.135 67.0128 116.202 67.0994C116.21 67.0895 116.218 67.0795 116.226 67.0694C116.287 66.9904 116.353 66.9054 116.404 66.8423C116.404 66.8423 116.404 66.8423 116.404 66.8423L118.051 64.7817H118.962L116.559 67.7674V70.7775H115.833V67.7674L113.43 64.7817Z" fill="white"/>
<path d="M122.992 70.2722V70.5673H119.394V64.9961H122.943V65.2912H119.695V67.4165H122.33V67.7032H119.695V70.2743H122.992V70.2722Z" fill="white"/>
<path fill-rule="evenodd" clip-rule="evenodd" d="M119.181 64.7838H123.156V65.5036H119.907V67.2042H122.542V67.9155H119.907V70.062H122.992V70.2722H123.205V70.7796H119.181V64.7838Z" fill="white"/>
<path d="M128.636 66.4102C128.198 65.6458 127.37 65.1766 126.415 65.1766C124.973 65.1766 123.835 66.2191 123.835 67.7796C123.835 69.3168 124.973 70.3741 126.415 70.3741C127.425 70.3741 128.294 69.8327 128.723 68.9813L129.024 69.0683C128.555 70.0556 127.576 70.6756 126.413 70.6756C124.812 70.6756 123.523 69.4569 123.523 67.7775C123.523 66.0981 124.812 64.8794 126.413 64.8794C127.504 64.8794 128.442 65.4441 128.943 66.3274L128.636 66.4102Z" fill="white"/>
<path fill-rule="evenodd" clip-rule="evenodd" d="M123.311 67.7775C123.311 65.9778 124.698 64.667 126.413 64.667C127.58 64.667 128.589 65.2724 129.128 66.2226L129.263 66.4611L128.533 66.6577L128.451 66.5156C128.054 65.8219 127.299 65.3889 126.415 65.3889C125.086 65.3889 124.047 66.3402 124.047 67.7796C124.047 69.1959 125.087 70.1618 126.415 70.1618C127.347 70.1618 128.141 69.664 128.533 68.8858L128.612 68.7284L129.323 68.9337L129.216 69.1595C128.71 70.2233 127.655 70.8879 126.413 70.8879C124.698 70.8879 123.311 69.5771 123.311 67.7775Z" fill="white"/>
<path d="M133.657 64.994V65.2891H131.708V70.5673H131.398V65.2891H129.447V64.994H133.657Z" fill="white"/>
<path fill-rule="evenodd" clip-rule="evenodd" d="M129.234 64.7817H133.869V65.5014H131.92V70.7796H131.185V65.5014H129.234V64.7817Z" fill="white"/>
<path d="M136.833 64.8836C138.434 64.8836 139.731 66.1023 139.731 67.7817C139.731 69.4611 138.434 70.6798 136.833 70.6798C135.232 70.6798 133.943 69.4611 133.943 67.7817C133.943 66.1002 135.232 64.8836 136.833 64.8836ZM136.833 70.3826C138.266 70.3826 139.419 69.3168 139.419 67.7796C139.419 66.2191 138.264 65.1766 136.833 65.1766C135.391 65.1766 134.253 66.2191 134.253 67.7796C134.253 69.3168 135.391 70.3826 136.833 70.3826Z" fill="white"/>
<path fill-rule="evenodd" clip-rule="evenodd" d="M133.731 67.7817C133.731 65.9798 135.118 64.6713 136.833 64.6713C138.547 64.6713 139.944 65.9813 139.944 67.7817C139.944 69.5822 138.547 70.8921 136.833 70.8921C135.118 70.8921 133.731 69.5813 133.731 67.7817ZM136.833 65.3889C135.505 65.3889 134.466 66.3402 134.466 67.7796C134.466 69.1969 135.506 70.1703 136.833 70.1703C138.153 70.1703 139.207 69.1957 139.207 67.7796C139.207 66.3415 138.152 65.3889 136.833 65.3889Z" fill="white"/>
<path d="M144.035 66.4356C143.916 65.6564 143.271 65.1702 142.428 65.1702C141.527 65.1702 140.867 65.5927 140.867 66.3252C140.867 67.0492 141.75 67.2722 142.523 67.4802C143.271 67.6798 144.425 67.9664 144.425 69.1129C144.425 70.0131 143.646 70.6798 142.459 70.6798C141.249 70.6798 140.534 69.9473 140.453 69.0556L140.748 68.9749C140.797 69.7393 141.4 70.3911 142.459 70.3911C143.47 70.3911 144.116 69.8497 144.116 69.1087C144.116 68.1066 142.992 67.9155 142.213 67.6989C141.585 67.5248 140.557 67.2764 140.557 66.321C140.557 65.4526 141.353 64.8794 142.428 64.8794C143.415 64.8794 144.179 65.4441 144.33 66.3528L144.035 66.4356Z" fill="white"/>
<path fill-rule="evenodd" clip-rule="evenodd" d="M140.962 65.1051C141.339 64.8197 141.855 64.667 142.428 64.667C143.499 64.667 144.369 65.289 144.539 66.3181L144.571 66.5058L143.861 66.7049L143.825 66.4677C143.725 65.8096 143.184 65.3826 142.428 65.3826C142.007 65.3826 141.664 65.4816 141.433 65.6461C141.208 65.8059 141.079 66.0318 141.079 66.3252C141.079 66.5769 141.223 66.7559 141.507 66.9096C141.789 67.0628 142.161 67.163 142.545 67.2662C142.556 67.2692 142.567 67.2722 142.578 67.2752C142.594 67.2795 142.611 67.2838 142.627 67.2882C142.988 67.3843 143.471 67.5129 143.867 67.7617C144.296 68.0305 144.638 68.4497 144.638 69.1129C144.638 69.6292 144.412 70.0806 144.022 70.3986C143.633 70.7145 143.091 70.8921 142.459 70.8921C141.15 70.8921 140.333 70.0859 140.242 69.0747L140.226 68.8977L140.943 68.7014L140.96 68.9614C140.981 69.291 141.121 69.5919 141.366 69.8113C141.611 70.0303 141.974 70.1788 142.459 70.1788C142.928 70.1788 143.293 70.0531 143.535 69.8613C143.773 69.6722 143.903 69.4121 143.903 69.1087C143.903 68.9011 143.846 68.7452 143.756 68.6206C143.663 68.493 143.528 68.3873 143.357 68.2969C143.075 68.1474 142.735 68.0576 142.4 67.969C142.318 67.9474 142.237 67.9258 142.156 67.9035M140.962 65.1051C140.58 65.3937 140.345 65.8148 140.345 66.321L140.962 65.1051ZM140.345 66.321C140.345 66.8948 140.662 67.2556 141.039 67.4845L140.345 66.321ZM141.039 67.4845C141.378 67.6899 141.786 67.8018 142.086 67.8842L141.039 67.4845ZM142.086 67.8842C142.111 67.8908 142.134 67.8973 142.156 67.9035L142.086 67.8842Z" fill="white"/>
</g>
<defs>
<clipPath id="clip0">
<rect width="144.638" height="70.89" fill="white"/>
</clipPath>
</defs>
</svg>
